<?xml version="1.0" standalone="no"?>
<!DOCTYPE svg PUBLIC "-//W3C//DTD SVG 20010904//EN"
 "http://www.w3.org/TR/2001/REC-SVG-20010904/DTD/svg10.dtd">
<svg version="1.0" xmlns="http://www.w3.org/2000/svg"
 width="512.000000pt" height="512.000000pt" viewBox="0 0 512.000000 512.000000"
 preserveAspectRatio="xMidYMid meet">
<metadata>
Created by potrace 1.11, written by Peter Selinger 2001-2013
</metadata>
<g transform="translate(0.000000,512.000000) scale(0.100000,-0.100000)"
fill="#000000" stroke="none">
<path d="M3855 4709 c-170 -17 -229 -52 -446 -269 -238 -238 -351 -393 -396
-543 -16 -54 -20 -153 -9 -203 7 -31 7 -31 -71 -62 -250 -99 -561 -144 -993
-146 l-265 -1 -165 37 c-212 48 -280 58 -420 58 l-116 0 -43 88 c-23 48 -70
134 -104 192 -201 341 -653 557 -781 372 -35 -52 -46 -86 -46 -146 0 -84 35
-139 179 -285 133 -134 178 -199 218 -307 42 -117 41 -162 -5 -304 -73 -227
-100 -450 -83 -685 17 -219 48 -339 131 -504 65 -131 74 -166 59 -242 -9 -45
-24 -77 -56 -121 -120 -163 -138 -218 -137 -413 2 -231 72 -580 159 -794 103
-251 216 -331 469 -331 64 0 92 5 131 24 104 48 163 146 152 251 -8 75 -38
127 -119 203 -77 74 -108 120 -138 206 -28 81 -50 245 -50 368 0 99 2 107 28
144 16 21 65 67 110 102 l82 63 0 -42 c0 -57 45 -317 74 -430 58 -222 125
-374 200 -456 82 -90 169 -123 336 -124 89 -1 106 2 155 25 83 41 145 135 145
220 0 81 -28 134 -123 234 -150 158 -182 259 -182 582 l0 195 73 218 c39 120
72 224 72 232 0 28 20 24 126 -26 199 -93 366 -138 592 -160 l123 -12 -6 -41
c-31 -235 -59 -724 -50 -881 21 -381 115 -669 265 -809 82 -77 118 -88 270
-84 126 3 129 4 166 34 53 42 77 93 75 158 -2 84 -36 144 -114 201 -35 25 -52
87 -72 263 -19 172 -19 381 0 524 18 127 78 384 83 353 29 -167 144 -662 177
-762 110 -334 231 -466 430 -467 66 -1 89 4 130 24 134 67 164 227 61 325 -24
22 -53 47 -65 55 -51 36 -74 154 -130 690 -55 519 -73 771 -68 985 5 263 26
599 42 683 23 121 93 237 171 289 39 25 95 17 201 -27 206 -86 360 -75 498 35
22 17 61 44 87 58 84 49 150 147 178 267 7 30 21 73 31 95 50 109 0 198 -119
215 -70 10 -86 14 -242 57 -91 25 -133 42 -154 61 -15 15 -68 86 -116 157
-186 275 -336 358 -595 334z m210 -239 c70 -34 118 -86 216 -235 89 -134 149
-200 216 -233 21 -10 109 -39 196 -63 l157 -43 -6 -36 c-10 -58 -39 -114 -73
-143 -18 -15 -37 -27 -43 -27 -6 0 -34 -17 -62 -39 -72 -54 -88 -61 -146 -61
-37 0 -79 11 -148 39 -131 54 -181 65 -257 58 -186 -18 -352 -204 -410 -459
-8 -36 -19 -160 -25 -275 -15 -322 -45 -486 -119 -638 -47 -99 -83 -143 -163
-207 -35 -27 -80 -62 -100 -79 -76 -61 -153 -232 -208 -464 -49 -201 -62 -320
-62 -535 2 -382 49 -616 142 -694 l32 -26 -39 0 c-59 0 -101 36 -154 130 -54
98 -96 249 -120 427 -16 124 -6 515 20 786 11 114 23 268 27 341 l7 133 -169
6 c-227 8 -394 38 -546 97 -40 15 -152 66 -248 114 -191 94 -282 122 -416 129
l-80 3 -16 -130 c-39 -319 -128 -454 -478 -719 -237 -181 -286 -247 -297 -402
-7 -98 11 -297 36 -415 36 -165 108 -293 216 -385 91 -79 70 -123 -54 -110
-112 12 -147 36 -196 133 -118 236 -213 779 -161 925 8 21 27 56 43 78 15 22
42 60 60 84 47 67 74 149 80 240 7 110 -7 169 -77 310 -98 199 -126 340 -117
598 6 188 29 316 85 470 32 89 37 112 35 182 -2 102 -22 190 -69 296 -53 120
-95 178 -235 318 -71 70 -119 126 -112 128 17 6 110 -37 179 -83 86 -57 158
-128 209 -205 40 -61 136 -247 201 -387 l20 -44 229 -2 c225 -2 233 -3 385
-38 203 -47 238 -50 475 -49 500 3 920 72 1160 192 l59 30 61 -33 c56 -31 67
-33 156 -33 88 0 100 2 162 34 203 103 363 405 369 695 2 94 -9 117 -66 141
-57 24 -131 -16 -140 -77 -2 -18 -9 -73 -16 -121 -33 -263 -212 -501 -343
-458 -48 16 -105 76 -113 119 -13 69 46 192 154 322 87 103 327 342 370 367
69 41 120 53 203 50 54 -3 89 -10 124 -27z m-2379 -2247 c-2 -10 -12 -46 -22
-81 -9 -34 -18 -61 -20 -59 -7 7 31 157 39 157 5 0 6 -8 3 -17z m2034 -673
c47 -463 62 -581 91 -690 24 -90 72 -182 111 -216 l30 -24 -28 0 c-35 0 -88
55 -132 137 -70 133 -105 269 -266 1032 l-24 114 81 77 82 78 7 -46 c4 -26 25
-234 48 -462z m-2135 349 c-65 -198 -79 -291 -71 -474 10 -242 50 -421 121
-540 20 -33 70 -94 111 -135 77 -78 88 -102 55 -120 -43 -23 -172 -5 -223 31
-97 70 -238 583 -238 869 l0 96 51 49 c90 89 196 251 224 343 4 13 9 22 11 20
2 -2 -17 -65 -41 -139z"/>
</g>
</svg>
